<svg width="11" height="15" viewBox="0 0 11 15" fill="none" xmlns="http://www.w3.org/2000/svg">
<path d="M10.1843 5.74177C10.1483 6.60609 9.91575 7.45084 9.50427 8.21178C8.46824 10.2581 7.20349 12.1804 5.73427 13.9418C5.67109 14.052 5.58094 14.1443 5.47229 14.2102C5.36364 14.276 5.24005 14.3132 5.11311 14.3182C4.98616 14.3232 4.86003 14.2958 4.74654 14.2388C4.63305 14.1817 4.53592 14.0967 4.46427 13.9918C2.84006 12.059 1.47209 9.92472 0.394272 7.64177C0.110065 6.96914 -0.0233731 6.24243 0.00334943 5.51271C0.030072 4.78299 0.216307 4.06799 0.54895 3.41795C0.881594 2.76792 1.35258 2.19863 1.92879 1.75011C2.50501 1.30158 3.17248 0.984704 3.88427 0.821761C4.63126 0.64285 5.40896 0.634644 6.15956 0.797744C6.91016 0.960844 7.61433 1.29107 8.21971 1.76384C8.82509 2.23661 9.31609 2.83977 9.65622 3.52847C9.99635 4.21717 10.1768 4.9737 10.1843 5.74177ZM5.08427 7.51176C5.42486 7.50976 5.7572 7.40668 6.03915 7.21559C6.32109 7.0245 6.53996 6.75399 6.668 6.43837C6.79604 6.12275 6.82748 5.77622 6.75835 5.4427C6.68923 5.10919 6.52263 4.80371 6.27969 4.56499C6.03675 4.32626 5.7284 4.16503 5.39373 4.10174C5.05906 4.03846 4.71313 4.07596 4.3998 4.2095C4.08646 4.34304 3.81983 4.56661 3.6337 4.85185C3.44757 5.1371 3.35032 5.47119 3.35427 5.81177C3.36468 6.26455 3.55121 6.69544 3.87425 7.01288C4.19729 7.33032 4.63137 7.50928 5.08427 7.51176Z" fill="#111827"/>
</svg>
