<svg width="14" height="11" viewBox="0 0 14 11" fill="none" xmlns="http://www.w3.org/2000/svg">
<path d="M0.0397444 3.39392L2.40975 5.16393L5.72975 7.64392C6.03684 7.92929 6.44053 8.08791 6.85974 8.08791C7.27896 8.08791 7.68265 7.92929 7.98974 7.64392L13.2198 3.73392L13.6398 3.44392C13.6481 3.59714 13.6481 3.7507 13.6398 3.90392C13.6398 5.50392 13.6398 7.09391 13.6398 8.68391C13.6739 8.94458 13.6478 9.2096 13.5636 9.45862C13.4793 9.70764 13.3391 9.93405 13.1537 10.1204C12.9683 10.3068 12.7426 10.4482 12.494 10.5337C12.2455 10.6193 11.9806 10.6467 11.7198 10.6139H1.92974C1.67265 10.6455 1.41174 10.6186 1.16649 10.5353C0.921242 10.4519 0.69799 10.3142 0.513393 10.1325C0.328795 9.95081 0.187622 9.72975 0.100413 9.48584C0.0132046 9.24193 -0.0177892 8.98148 0.00974564 8.72392C0.0297456 6.99392 0.0397444 5.25392 0.0397444 3.39392Z" fill="#111827"/>
<path d="M6.89979 0.383875H12.2398C12.5382 0.344194 12.8411 0.410155 13.0961 0.570307C13.351 0.73046 13.5419 0.974719 13.6356 1.2608C13.7294 1.54688 13.7202 1.85676 13.6095 2.13674C13.4989 2.41673 13.2938 2.64919 13.0298 2.79388L7.67979 6.79388C7.00979 7.30388 6.77979 7.29388 6.09979 6.79388L0.749787 2.79388C0.48532 2.64803 0.280411 2.41401 0.170769 2.13259C0.0611268 1.85118 0.0537042 1.54021 0.149788 1.25389C0.25231 0.969672 0.449234 0.729222 0.707672 0.572703C0.96611 0.416184 1.27042 0.35307 1.56979 0.393885L6.89979 0.383875Z" fill="#111827"/>
</svg>
