<svg width="11" height="11" viewBox="0 0 11 11" fill="none" xmlns="http://www.w3.org/2000/svg">
<path d="M6.52607 7.90343L7.32607 6.90343C7.4415 6.72221 7.62271 6.59283 7.83159 6.54247C8.04047 6.49212 8.26075 6.52471 8.44608 6.63343C9.07608 6.88343 9.70607 7.15343 10.3261 7.41343C10.4333 7.44632 10.5328 7.50035 10.6188 7.57232C10.7047 7.64428 10.7754 7.73273 10.8267 7.83245C10.878 7.93217 10.9087 8.04116 10.9172 8.15296C10.9257 8.26476 10.9117 8.37713 10.8761 8.48344C10.7261 9.10344 10.5561 9.71343 10.3761 10.3234C10.3201 10.5225 10.1943 10.6948 10.0217 10.8087C9.84901 10.9225 9.64112 10.9704 9.43607 10.9434C6.95156 10.9126 4.57692 9.91459 2.81624 8.16138C1.05557 6.40818 0.0475041 4.03779 0.00606756 1.55344C-0.0205599 1.32396 0.0410879 1.09293 0.178507 0.907233C0.315926 0.721531 0.518835 0.59506 0.746073 0.553443L2.42607 0.10343C2.53351 0.0628559 2.64812 0.0447406 2.76283 0.0502077C2.87755 0.0556749 2.98992 0.0846062 3.09301 0.135214C3.1961 0.185823 3.28772 0.257046 3.36221 0.344458C3.43669 0.43187 3.49246 0.533624 3.52607 0.643439C3.79607 1.27344 4.05607 1.90344 4.31607 2.53344C4.41886 2.72793 4.44507 2.95386 4.38954 3.16672C4.33401 3.37958 4.20077 3.56393 4.01607 3.68343C3.75607 3.90343 3.47607 4.10344 3.22607 4.33344C3.1921 4.37682 3.16747 4.42673 3.1537 4.48008C3.13994 4.53342 3.13733 4.58904 3.14607 4.64344C3.85343 6.09441 5.05049 7.24896 6.52607 7.90343Z" fill="#111827"/>
</svg>
