<svg width="14" height="14" viewBox="0 0 14 14" fill="none" xmlns="http://www.w3.org/2000/svg">
<path fill-rule="evenodd" clip-rule="evenodd" d="M5.04895 0.275984C3.69596 0.670109 2.49317 1.46287 1.5975 2.55084C0.701826 3.63882 0.154858 4.97148 0.0279541 6.37498H3.22795C3.41449 4.23923 4.03372 2.16378 5.04795 0.274984L5.04895 0.275984ZM3.22795 7.62498H0.0279541C0.154594 9.02854 0.701328 10.3613 1.59683 11.4495C2.49232 12.5376 3.695 13.3306 5.04795 13.725C4.03372 11.8362 3.41449 9.76074 3.22795 7.62498ZM6.65195 13.992C5.43953 12.0691 4.6962 9.88808 4.48195 7.62498H9.51695C9.30271 9.88808 8.55937 12.0691 7.34695 13.992C7.11543 14.0035 6.88348 14.0035 6.65195 13.992ZM8.95195 13.724C10.3048 13.3297 11.5073 12.5369 12.4028 11.4489C13.2983 10.3609 13.8451 9.02836 13.972 7.62498H10.772C10.5854 9.76074 9.96619 11.8362 8.95195 13.725V13.724ZM10.772 6.37498H13.972C13.8453 4.97143 13.2986 3.63864 12.4031 2.55048C11.5076 1.46233 10.3049 0.669342 8.95195 0.274984C9.96619 2.16378 10.5854 4.23923 10.772 6.37498ZM6.65195 0.00798425C6.88381 -0.0035566 7.1161 -0.0035566 7.34795 0.00798425C8.56002 1.93097 9.30301 4.11198 9.51695 6.37498H4.48295C4.69995 4.09798 5.44495 1.91498 6.65195 0.00798425Z" fill="black"/>
</svg>
